<svg width="170" height="82" viewBox="0 0 170 82" fill="none" xmlns="http://www.w3.org/2000/svg">
<path d="M152.798 11.534C143.457 20.7991 141.938 22.6976 141.938 24.6722C141.938 27.634 143.154 28.8491 146.115 28.8491C148.09 28.8491 149.988 27.3302 158.874 18.3689C167.607 9.48349 169.278 7.50896 169.278 5.53443C169.278 3.0283 167.304 0.749998 165.101 0.749998C164.342 0.749998 158.95 5.45849 152.798 11.534Z" fill="#ED3729"/>
<path d="M0.683491 23.3052C0.683491 23.609 0.531604 29.9882 0.379717 37.3547L0 50.8726H9.34104C20.5047 50.8726 24.2259 49.5057 26.808 44.4174C29.0104 40.2406 29.0104 32.4943 26.884 28.925C23.8462 23.7608 22.2514 23.1533 10.8599 22.9255C5.24009 22.7736 0.683491 22.9255 0.683491 23.3052ZM17.467 31.0514C19.0618 32.7222 19.6693 34.0132 19.6693 36.0637C19.6693 41.5316 16.5557 44.7972 11.2396 44.7972H9.03726V36.8231V28.8491H12.1509C14.5052 28.8491 15.7203 29.3047 17.467 31.0514Z" fill="black"/>
<path d="M56.35 25.1278C54.3755 25.7354 53.8439 26.267 53.8439 27.7099C53.8439 29.0769 53.4642 29.6085 52.325 29.6085C51.034 29.6085 50.8062 30.1401 50.8062 32.6462C50.8062 35.1523 51.034 35.684 52.325 35.684C53.7679 35.684 53.8439 36.1396 53.692 42.1391C53.3882 50.2651 54.1477 51.2524 60.7547 51.2524C63.6406 51.2524 65.5392 50.8726 65.9189 50.2651C66.3745 49.5057 66.9062 49.5057 68.7288 50.4929C71.0071 51.6321 76.3231 52.0877 76.8547 51.0245C77.0066 50.7207 77.3863 49.6575 77.6142 48.5943C78.0698 46.8476 77.842 46.6198 76.0194 46.6957C72.7538 46.6957 73.2854 44.0377 76.8547 42.8226L79.7406 41.8354L79.209 46.316L78.6774 50.8726H83.0062H87.259V41.8354C87.259 32.874 87.259 32.7222 85.2085 31.1273C83.3099 29.6085 82.3986 29.4566 76.3991 29.7604C69.2604 30.0641 68.2731 30.5957 68.2731 34.0132C68.2731 35.684 68.501 35.7599 70.7793 35.2283C72.0703 34.8486 74.4245 34.6207 75.8675 34.5448C80.4241 34.5448 79.0571 36.4434 73.2854 38.342C68.1972 40.0127 65.9948 41.6835 65.9948 43.8099C65.9948 44.3415 65.1595 44.7972 64.0962 44.7972C62.2736 44.7972 62.1977 44.5693 62.1977 40.2406V35.684H64.476C66.6024 35.684 66.7543 35.5321 66.7543 32.6462C66.7543 29.7604 66.6024 29.6085 64.476 29.6085C62.3495 29.6085 62.1977 29.3806 62.1977 26.9505C62.1977 23.9887 61.2104 23.6849 56.35 25.1278Z" fill="black"/>
<path d="M33.3386 30.292C31.8957 30.6717 31.3641 31.3552 31.2122 33.3297C30.9844 35.8359 30.9844 35.8359 33.4905 35.2283C41.2367 33.3297 44.5023 35.7599 37.1358 37.9623C31.2881 39.709 29.8452 40.6203 28.9339 43.1264C27.9466 46.0123 29.5414 49.8854 32.1995 50.8726C33.9462 51.5561 39.4141 51.9359 39.4141 51.4043C39.4141 51.3283 39.7179 50.1132 40.0976 48.7462C40.7811 46.392 40.7811 46.316 38.9584 46.7717C37.6674 47.0755 36.9839 46.8476 36.6801 45.9363C36.0726 44.4175 36.908 43.5061 39.6419 42.8986L41.6924 42.367V46.6198V50.8726H45.8693H50.0462V42.1392C50.0462 33.7854 49.9702 33.2538 48.1476 31.5071C46.5528 29.8363 45.7174 29.6085 40.7811 29.6844C37.7433 29.7604 34.4018 29.9882 33.3386 30.292Z" fill="black"/>
<path d="M89.5371 40.2406V50.8726H93.714H97.8909V44.1137C97.8909 39.1014 98.1947 37.1269 99.03 36.4434C99.9414 35.684 100.397 35.684 101.384 36.5193C102.372 37.2788 102.523 38.7976 102.296 44.1896L102.068 50.8726H105.941H109.89L110.118 44.4174C110.422 37.5825 111.637 35.0764 113.839 36.4434C114.75 36.975 114.902 38.5698 114.75 44.0377L114.598 50.8726H118.775H122.952V41.7594C122.952 33.6335 122.8 32.4943 121.433 31.1274C119.535 29.2288 113.459 29.0009 111.485 30.8236C110.27 31.9627 109.966 31.9627 108.371 30.8236C106.169 29.3047 101.005 29.2288 98.8022 30.8236C97.2833 31.8868 97.1314 31.8868 97.1314 30.8236C97.1314 29.9123 96.2961 29.6085 93.3343 29.6085H89.5371V40.2406Z" fill="black"/>
<path d="M129.407 30.1401C127.509 30.6717 126.749 31.7349 126.749 34.0891C126.749 35.5321 127.053 35.7599 128.496 35.3802C131.914 34.4689 135.863 34.0132 136.926 34.3929C138.9 35.1524 137.457 37.0509 134.496 37.5825C126.142 39.1014 122.421 43.1264 124.851 47.759C126.218 50.417 128.572 51.6321 132.521 51.6321C134.648 51.6321 135.255 51.2524 135.863 49.6575C136.926 46.9236 136.85 46.392 135.331 46.7717C134.572 46.9236 133.508 46.7717 132.901 46.392C131.458 45.4047 132.825 43.658 135.939 42.5948L138.141 41.8354V46.392V50.8726H142.318H146.495V42.2151C146.495 30.5958 146.039 30.0641 137.23 29.8363C133.812 29.7604 130.243 29.9123 129.407 30.1401Z" fill="black"/>
<path d="M148.545 30.1401C148.242 30.3679 148.014 35.1524 148.014 40.7722V50.8726H151.735H155.456L155.76 44.7212C156.064 38.1141 157.051 36.4434 160.696 36.4434C162.215 36.4434 162.443 36.0637 162.443 33.4057C162.443 29.8363 161.152 28.925 157.81 30.1401C156.595 30.6717 155.608 30.6717 155.608 30.292C155.608 29.5325 149.305 29.3807 148.545 30.1401Z" fill="black"/>
<path d="M109.282 56.6443L105.409 60.2137L102.979 57.8594C98.5743 53.5307 97.3592 54.0623 85.9677 65.4538C80.3478 71.0736 75.8672 76.1618 75.8672 76.9212C75.8672 79.6552 77.3101 81.25 79.8922 81.25C81.9427 81.25 83.4615 80.1109 90.0686 73.5038L97.8148 65.8335L100.549 68.1877C101.992 69.5547 103.966 70.6179 104.802 70.6179C107.308 70.6179 117.636 60.2137 117.636 57.7835C117.636 55.2774 116.953 54.2142 114.826 53.6066C113.459 53.1509 112.32 53.7585 109.282 56.6443Z" fill="#ED3729"/>
</svg>
